<?xml version="1.0" standalone="no"?>
<!DOCTYPE svg PUBLIC "-//W3C//DTD SVG 20010904//EN"
 "http://www.w3.org/TR/2001/REC-SVG-20010904/DTD/svg10.dtd">
<svg version="1.0" xmlns="http://www.w3.org/2000/svg"
 width="1024.000000pt" height="1024.000000pt" viewBox="0 0 1024.000000 1024.000000"
 preserveAspectRatio="xMidYMid meet">

<g transform="translate(0.000000,1024.000000) scale(0.100000,-0.100000)"
fill="#000000" stroke="none">
<path d="M3455 9489 c-128 -12 -230 -67 -318 -170 -155 -180 -140 -473 33
-648 82 -82 203 -141 295 -141 26 0 44 -16 136 -127 129 -156 234 -280 441
-525 l158 -186 -55 -74 c-76 -100 -140 -229 -169 -335 l-23 -88 -894 -5 c-966
-6 -908 -3 -1059 -59 -142 -53 -306 -180 -395 -306 -78 -109 -120 -207 -150
-350 -16 -74 -18 -203 -16 -1700 1 -1073 5 -1640 12 -1678 35 -200 138 -389
284 -525 82 -76 149 -119 262 -167 121 -52 213 -67 406 -69 92 0 167 -4 167
-8 0 -4 -20 -97 -44 -205 -24 -109 -47 -213 -51 -230 l-7 -33 -395 0 -395 0
-34 -34 c-38 -38 -44 -77 -19 -126 34 -65 -268 -60 3497 -60 3403 0 3423 0
3456 20 62 38 68 122 12 172 l-30 28 -393 0 -392 0 -49 223 c-27 122 -51 229
-54 239 -3 14 15 17 185 20 216 5 290 21 432 89 208 99 365 266 450 479 65
164 62 63 59 1900 l-3 1665 -22 70 c-107 332 -355 563 -676 629 -67 14 -207
16 -1116 16 l-1041 0 -6 28 c-34 149 -93 280 -174 386 -28 37 -50 71 -48 76 2
4 116 140 253 301 371 434 431 504 446 526 9 13 37 23 84 32 247 44 425 298
386 549 -16 108 -58 191 -133 266 -109 108 -250 157 -395 136 -129 -18 -209
-57 -290 -142 -117 -124 -158 -290 -112 -453 11 -38 20 -75 22 -81 1 -6 -146
-186 -328 -399 -181 -214 -339 -402 -350 -417 -14 -20 -26 -27 -40 -23 -11 3
-45 12 -75 21 -133 37 -366 34 -487 -6 -45 -15 -61 -16 -69 -7 -7 7 -108 127
-225 267 -118 140 -269 321 -337 402 l-123 146 21 73 c36 130 22 273 -36 380
-40 72 -129 155 -209 195 -81 39 -159 52 -260 43z m92 -255 c-3 -3 -12 -4 -19
-1 -8 3 -5 6 6 6 11 1 17 -2 13 -5z m2840 0 c-3 -3 -12 -4 -19 -1 -8 3 -5 6 6
6 11 1 17 -2 13 -5z m56 -1 c-7 -2 -21 -2 -30 0 -10 3 -4 5 12 5 17 0 24 -2
18 -5z m44 -9 c-3 -3 -12 -4 -19 -1 -8 3 -5 6 6 6 11 1 17 -2 13 -5z m-194
-23 c-17 -11 -43 -37 -57 -58 -14 -21 -26 -32 -26 -25 0 17 84 102 101 102 8
0 0 -9 -18 -19z m247 -7 c0 -2 -9 0 -20 6 -11 6 -20 13 -20 16 0 2 9 0 20 -6
11 -6 20 -13 20 -16z m-3150 13 c0 -2 -17 -19 -37 -38 l-38 -34 34 38 c33 34
41 42 41 34z m302 -72 c11 -21 8 -18 -32 30 -24 29 -24 29 -2 10 13 -11 28
-29 34 -40z m2910 -10 c5 -11 -2 -6 -16 10 -14 17 -25 35 -25 40 0 11 25 -20
41 -50z m-3289 -10 c-3 -9 -8 -14 -10 -11 -3 3 -2 9 2 15 9 16 15 13 8 -4z
m2884 -67 c-3 -8 -6 -5 -6 6 -1 11 2 17 5 13 3 -3 4 -12 1 -19z m430 -50 c-2
-13 -4 -3 -4 22 0 25 2 35 4 23 2 -13 2 -33 0 -45z m-2900 5 c-3 -10 -5 -2 -5
17 0 19 2 27 5 18 2 -10 2 -26 0 -35z m2470 -25 c-3 -8 -6 -5 -6 6 -1 11 2 17
5 13 3 -3 4 -12 1 -19z m-2480 -30 c-3 -8 -6 -5 -6 6 -1 11 2 17 5 13 3 -3 4
-12 1 -19z m2863 -72 c0 -3 -4 -8 -10 -11 -5 -3 -10 -1 -10 4 0 6 5 11 10 11
6 0 10 -2 10 -4z m-3033 -72 c-3 -3 -12 -4 -19 -1 -8 3 -5 6 6 6 11 1 17 -2
13 -5z m419 -404 c387 -453 458 -541 443 -551 -8 -5 -19 -8 -25 -6 -6 1 -128
139 -270 307 -386 454 -356 414 -332 438 10 10 15 9 24 0 6 -7 78 -92 160
-188z m2183 181 c9 -15 -1 -32 -57 -97 -77 -89 -336 -393 -462 -542 -81 -96
-111 -116 -118 -81 -2 9 65 96 155 201 87 102 226 265 308 362 83 97 153 176
157 176 4 0 12 -8 17 -19z m-1271 -848 c-10 -2 -26 -2 -35 0 -10 3 -2 5 17 5
19 0 27 -2 18 -5z m185 0 c-7 -2 -21 -2 -30 0 -10 3 -4 5 12 5 17 0 24 -2 18
-5z m-260 -10 c-7 -2 -19 -2 -25 0 -7 3 -2 5 12 5 14 0 19 -2 13 -5z m304 1
c-3 -3 -12 -4 -19 -1 -8 3 -5 6 6 6 11 1 17 -2 13 -5z m143 -44 c8 -5 11 -10
5 -10 -5 0 -17 5 -25 10 -8 5 -10 10 -5 10 6 0 17 -5 25 -10z m-620 -14 c0 -2
-7 -7 -16 -10 -8 -3 -12 -2 -9 4 6 10 25 14 25 6z m680 -22 c0 -2 -9 0 -20 6
-11 6 -20 13 -20 16 0 2 9 0 20 -6 11 -6 20 -13 20 -16z m91 -61 c13 -16 12
-17 -3 -4 -10 7 -18 15 -18 17 0 8 8 3 21 -13z m-901 4 c0 -2 -17 -19 -37 -38
l-38 -34 34 38 c33 34 41 42 41 34z m980 -79 c19 -24 26 -37 17 -29 -19 15
-61 71 -54 71 2 0 19 -19 37 -42z m-1060 -2 c0 -2 -8 -10 -17 -17 -16 -13 -17
-12 -4 4 13 16 21 21 21 13z m-30 -40 c0 -2 -8 -10 -17 -17 -16 -13 -17 -12
-4 4 13 16 21 21 21 13z m1170 -71 c0 -11 -14 7 -31 40 -7 13 -3 12 10 -5 11
-14 21 -29 21 -35z m-1210 15 c-6 -11 -13 -20 -16 -20 -2 0 0 9 6 20 6 11 13
20 16 20 2 0 0 -9 -6 -20z m2342 -809 c177 -45 316 -156 402 -320 76 -146 71
-40 71 -1516 0 -1250 -1 -1323 -18 -1385 -49 -171 -173 -322 -327 -399 -155
-76 4 -71 -2221 -71 -1940 0 -1998 1 -2071 19 -187 48 -335 164 -421 330 -71
135 -67 53 -67 1505 0 1171 2 1315 16 1379 52 230 234 413 459 462 48 11 451
14 2081 14 1967 1 2023 0 2096 -18z m1301 -188 c-13 -2 -33 -2 -45 0 -13 2 -3
4 22 4 25 0 35 -2 23 -4z m-80 -10 c-7 -2 -19 -2 -25 0 -7 3 -2 5 12 5 14 0
19 -2 13 -5z m144 1 c-3 -3 -12 -4 -19 -1 -8 3 -5 6 6 6 11 1 17 -2 13 -5z
m68 -24 c3 -6 -1 -7 -9 -4 -18 7 -21 14 -7 14 6 0 13 -4 16 -10z m-335 -30
c-19 -16 -39 -29 -44 -30 -11 0 -5 6 38 38 42 32 46 27 6 -8z m395 -10 c10
-11 16 -20 13 -20 -3 0 -13 9 -23 20 -10 11 -16 20 -13 20 3 0 13 -9 23 -20z
m-445 -33 c0 -2 -10 -12 -22 -23 l-23 -19 19 23 c18 21 26 27 26 19z m511 -39
c15 -28 5 -21 -21 15 -15 20 -17 27 -6 18 9 -8 22 -23 27 -33z m-568 -43 c-9
-19 -18 -33 -21 -31 -4 5 26 66 33 66 3 0 -3 -16 -12 -35z m-36 -147 c-3 -7
-5 -2 -5 12 0 14 2 19 5 13 2 -7 2 -19 0 -25z m27 -114 c3 -8 2 -12 -4 -9 -6
3 -10 10 -10 16 0 14 7 11 14 -7z m606 -2 c0 -5 -7 -17 -15 -28 -14 -18 -14
-17 -4 9 12 27 19 34 19 19z m-586 -38 c3 -8 2 -12 -4 -9 -6 3 -10 10 -10 16
0 14 7 11 14 -7z m486 -88 c0 -2 -8 -10 -17 -17 -16 -13 -17 -12 -4 4 13 16
21 21 21 13z m-253 -72 c-3 -3 -12 -4 -19 -1 -8 3 -5 6 6 6 11 1 17 -2 13 -5z
m199 -574 c155 -76 228 -269 165 -432 -28 -72 -99 -151 -165 -185 -72 -37
-198 -44 -276 -14 -167 63 -256 246 -204 421 19 65 35 92 88 148 71 76 146
104 255 98 57 -4 89 -12 137 -36z m-29 -1161 c75 -29 145 -95 185 -176 27 -54
31 -75 31 -136 -1 -140 -68 -249 -191 -309 -60 -30 -75 -33 -157 -33 -108 0
-163 23 -238 97 -70 70 -91 123 -92 233 0 77 4 98 26 145 44 93 109 154 198
186 58 21 171 17 238 -7z m-1041 -1932 l121 -232 -2060 -3 c-1133 -1 -2062 -1
-2064 1 -1 2 29 62 68 133 39 71 91 170 116 219 26 50 51 96 56 103 7 9 384
12 1826 12 l1816 -1 121 -232z"/>
<path d="M6188 6054 c-173 -41 -290 -163 -333 -346 -22 -94 -22 -877 0 -963
48 -184 183 -305 374 -336 248 -41 481 113 530 349 14 69 15 868 1 943 -34
178 -180 327 -351 359 -70 13 -152 11 -221 -6z m192 -320 c15 -9 36 -31 46
-48 18 -29 19 -57 19 -456 0 -390 -1 -428 -18 -453 -57 -88 -184 -79 -228 16
-17 39 -19 71 -19 445 0 357 2 408 17 439 31 66 120 94 183 57z"/>
<path d="M2556 6018 c-19 -31 -45 -1533 -27 -1567 11 -20 19 -21 150 -21 104
0 141 3 150 13 7 10 12 148 13 448 l3 434 49 -130 c115 -302 146 -379 158
-387 7 -4 50 -8 94 -8 64 0 86 4 102 18 18 15 192 469 192 501 0 6 4 11 9 11
4 0 11 -192 16 -427 4 -235 11 -437 16 -450 8 -22 12 -23 143 -23 108 0 136 3
146 15 11 13 11 115 2 538 -23 1016 -24 1027 -39 1043 -19 19 -290 20 -316 2
-14 -11 -210 -558 -250 -700 -6 -21 -14 -38 -17 -38 -3 0 -18 37 -33 83 -154
444 -222 635 -235 650 -13 15 -35 17 -163 17 -143 0 -149 -1 -163 -22z"/>
<path d="M4297 6028 c-11 -9 -33 -84 -67 -228 -28 -118 -69 -291 -91 -385 -36
-152 -66 -276 -194 -809 -27 -113 -33 -152 -24 -162 9 -11 44 -14 148 -14 75
0 141 4 148 8 7 4 27 73 46 152 l34 145 161 3 c146 2 161 1 166 -15 3 -10 17
-70 31 -133 39 -177 18 -160 199 -160 123 0 156 3 166 15 10 12 -6 88 -80 397
-51 211 -134 559 -185 775 -50 216 -98 399 -105 408 -10 12 -41 15 -174 15
-114 0 -167 -4 -179 -12z m223 -753 c24 -110 45 -210 48 -222 4 -23 3 -23
-103 -23 -97 0 -106 2 -101 18 6 21 48 212 77 356 15 72 25 102 30 90 4 -11
26 -109 49 -219z"/>
<path d="M4837 6033 c-18 -17 5 -86 168 -520 l175 -466 0 -289 c0 -180 4 -297
10 -309 10 -17 22 -19 148 -19 94 0 142 4 150 12 9 9 12 92 12 314 l0 302 146
428 c183 537 178 522 163 540 -16 19 -297 20 -322 2 -9 -8 -34 -80 -60 -173
-84 -304 -102 -365 -107 -365 -3 0 -13 26 -22 58 -69 248 -140 469 -155 480
-18 13 -294 18 -306 5z"/>
<path d="M3950 4151 c-14 -27 -13 -164 2 -179 8 -8 52 -12 130 -12 l118 0 0
-311 c0 -195 4 -318 10 -330 9 -17 22 -19 106 -19 52 0 104 5 115 10 18 10 19
25 19 330 l0 320 99 0 c127 0 131 4 131 109 0 46 -5 82 -12 89 -9 9 -103 12
-360 12 -333 0 -348 -1 -358 -19z"/>
<path d="M4781 4156 c-13 -15 18 -120 181 -611 l83 -250 131 -3 c100 -2 134 1
142 11 11 13 37 93 168 517 92 300 97 318 91 334 -5 13 -25 16 -111 16 -90 0
-107 -3 -114 -17 -11 -21 -162 -563 -162 -581 0 -7 -3 -12 -7 -12 -5 0 -44
133 -87 295 -43 161 -84 299 -89 304 -17 17 -212 14 -226 -3z"/>
<path d="M3222 3840 l-304 -5 -19 -24 c-27 -33 -24 -84 5 -118 l24 -28 326 -3
327 -3 29 30 c54 53 34 131 -38 151 -20 5 -39 9 -42 8 -3 -1 -142 -5 -308 -8z"/>
<path d="M6164 3842 c-270 -2 -271 -2 -293 -26 -39 -41 -29 -116 19 -141 24
-12 81 -15 310 -15 l282 0 29 29 c54 54 28 145 -43 152 -18 2 -155 3 -304 1z"/>
<path d="M1294 1849 c-29 -14 -54 -61 -54 -99 0 -44 56 -100 99 -100 43 0 75
17 94 50 43 72 -1 161 -80 159 -21 0 -47 -5 -59 -10z"/>
<path d="M8828 1844 c-92 -50 -46 -194 62 -194 50 0 90 46 90 105 0 85 -77
130 -152 89z"/>
</g>
</svg>